<svg id="图层_1" data-name="图层 1" xmlns="http://www.w3.org/2000/svg" viewBox="0 0 1920 1920"><defs><style>.cls-1,.cls-5{fill:#c69c6d;}.cls-2{fill:#42210b;}.cls-10,.cls-3,.cls-9{fill:none;}.cls-10,.cls-3,.cls-4,.cls-5,.cls-6,.cls-9{stroke:#42210b;stroke-width:35px;}.cls-10,.cls-3,.cls-4,.cls-5{stroke-linejoin:round;}.cls-4{fill:#a4cccc;}.cls-6{fill:#ff1d25;}.cls-10,.cls-6,.cls-9{stroke-linecap:round;}.cls-6,.cls-9{stroke-miterlimit:10;}.cls-7{fill:#ffff46;}.cls-8{fill:#e9e959;}</style></defs><path class="cls-1" d="M247.25,646.75c-10.88.06-21.47-7.12-23.68-16.09-1.71-7,2.13-13.22,9.58-15.55l731-234.29a23.9,23.9,0,0,1,14.54,0l731,234.33c9.66,3,12.86,12.37,7.19,20.85-4.34,6.51-12.88,10.83-21.27,10.79Z"/><path class="cls-2" d="M970.86,395.39l736.45,220.09H234.41L970.86,395.39m0-33.2a47.88,47.88,0,0,0-13.62,2L220.81,584.26c-20.83,6.22-31.63,25.25-24.1,42.49,5.74,13.16,20.82,21.93,37.72,21.93H1707.31c22.15,0,40.11-14.86,40.11-33.19,0-14-10.59-26.48-26.48-31.23L984.48,364.16A47.88,47.88,0,0,0,970.86,362.19Z"/><path class="cls-3" d="M764.76,432.05c-18.46-38-40.78-98.05-39-172.24.76-32.5,4.08-174.15,85.16-194.59,51.37-12.93,77.43,36.91,191.65,56.54,118,20.28,198.43-14.29,212.92,6.57,20.72,29.84-151.24,89.8-157.93,188-3.4,50.08,37.38,92.2,69.21,118.33"/><path class="cls-4" d="M1435.72,1733.3H507.1c-57.16,0-99.06-41.3-93.79-91.37l82.83-779.26c3.79-35.68,45.05-64.19,92.21-64.19h766.11c47.16,0,88.41,28.51,92.2,64.19l82.83,779.26C1534.82,1692,1492.91,1733.3,1435.72,1733.3Z"/><path class="cls-5" d="M583.89,661.46h775c23.63,0,42.78,15.66,42.78,35V758c0,19.32-19.15,35-42.78,35h-775c-23.62,0-42.77-15.66-42.77-35V696.44C541.12,677.12,560.27,661.46,583.89,661.46Z"/><path class="cls-5" d="M280,1747.47H1662.85c26.78,0,56.27,17.94,66.09,40.59l15.07,34.76c10.5,24.2-4,44.3-32.67,44.3H231.47c-28.66,0-43.17-20.1-32.67-44.3l15.07-34.76C223.69,1765.41,253.18,1747.47,280,1747.47Z"/><path class="cls-6" d="M824,1439.81c-32.72-26.68-83.77-76.54-103.71-146.49-8.49-29.77-9.14-55.29-9.68-81.45-.89-42.11-1.79-85.19,15.66-89.69,28.44-7.31,69.73,97,119.14,92.18,31.8-3.08,53-50,78.09-105.25,24.46-54,29.12-89.56,40.63-89.37,9.14.15,14.66,22.73,25.84,63.45,37.38,135.87,48.32,146.4,57.93,147.46,10.68,1.19,34.16-24.56,80.71-76.11,28.32-31.38,37.73-43.31,49.43-42,22,2.47,30.71,49.4,34.48,69.74,3.72,20.13,11.18,63.59-7.54,118.28-6.77,19.86-21.3,60.49-63.65,100.08-34.71,32.44-73.51,50.5-99.41,60.21"/><path class="cls-7" d="M851.72,1438.62c-12.55-24.82-11.58-43.63-8.41-56.2,4.58-18.19,14.21-24.88,17.56-48.19,2.9-20.21-1.88-33.06,3-33.82,10.91-1.71,30.79,50.19,52.28,48.72,17.73-1.21,28.92-38.22,30.57-43.93,5.27-18.42,2.45-29.85,8.13-30.7,8.22-1.23,23.52,21.7,29.94,31.33,17.29,25.92,15.72,41,26.77,42.53,8,1.07,12.17-6.23,32.84-17.83,20-11.21,49.71-23.28,56.07-19.11,4.19,2.76-3.93,11.2-17.12,30.89a501.42,501.42,0,0,0-30.82,55.06,249.66,249.66,0,0,0-18.87,54"/><path class="cls-8" d="M722.85,1716.17c-17.37-25.51-26.16-52.84-26.16-81.35,0-105.49,123.24-191.31,274.72-191.31s274.71,85.82,274.71,191.31c0,28.51-8.8,55.84-26.15,81.35Z"/><path class="cls-2" d="M967.33,1461a359.48,359.48,0,0,1,103.13,14.7c31,9.29,58.74,22.5,82.39,39.25,46.14,32.66,71.54,75.23,71.54,119.86,0,22.14-6.08,43.55-18.14,63.85H728.39c-12-20.3-18.15-41.71-18.15-63.85,0-44.63,25.4-87.2,71.54-119.86,23.65-16.75,51.38-30,82.39-39.25A359.6,359.6,0,0,1,967.31,1461m0-35c-162.87,0-294.91,93.48-294.91,208.81,0,35.76,12.71,69.42,35.09,98.85h519.64c22.38-29.43,35.08-63.09,35.08-98.85,0-115.33-132-208.81-294.9-208.81Z"/><path class="cls-9" d="M696.69,1618.62a1017.7,1017.7,0,0,1,544.39-2.63"/><line class="cls-10" x1="672.4" y1="648.68" x2="672.4" y2="796.59"/><line class="cls-10" x1="821.28" y1="648.68" x2="821.28" y2="796.59"/><line class="cls-10" x1="992.85" y1="648.68" x2="992.85" y2="796.59"/><line class="cls-10" x1="1130.72" y1="648.68" x2="1130.72" y2="796.59"/><line class="cls-10" x1="1270.41" y1="648.68" x2="1270.41" y2="796.59"/></svg>