<svg id="图层_1" data-name="图层 1" xmlns="http://www.w3.org/2000/svg" viewBox="0 0 1920 1920"><defs><style>.cls-1,.cls-5{fill:#c69c6d;}.cls-2{fill:#42210b;}.cls-3,.cls-9{fill:none;}.cls-3,.cls-4,.cls-5,.cls-6,.cls-9{stroke:#42210b;stroke-width:35px;}.cls-3,.cls-4,.cls-5{stroke-linejoin:round;}.cls-4{fill:#a4cccc;}.cls-6{fill:#ff1d25;}.cls-6,.cls-9{stroke-linecap:round;stroke-miterlimit:10;}.cls-7{fill:#ffff46;}.cls-8{fill:#e9e959;}</style></defs><path class="cls-1" d="M333.87,646.75a17.5,17.5,0,0,1-5.95-34L970.61,380.73a17.51,17.51,0,0,1,11.89,0l642.69,232.06a17.5,17.5,0,0,1-5.94,34Z"/><path class="cls-2" d="M976.56,397.19l642.69,232.06H333.87L976.56,397.19m0-35a34.9,34.9,0,0,0-11.89,2.08L322,596.33a35,35,0,0,0,11.89,67.92H1619.25a35,35,0,0,0,11.89-67.92L988.44,364.27a34.89,34.89,0,0,0-11.88-2.08Z"/><path class="cls-3" d="M807.58,414.94c-15.09-38-33.34-98.05-31.92-172.24.62-32.5,3.34-174.15,69.64-194.59,42-12.93,63.31,36.91,156.71,56.54,96.47,20.28,162.26-14.29,174.11,6.57,16.94,29.84-123.67,89.8-129.14,188-2.78,50.08,30.56,92.2,56.59,118.33"/><path class="cls-4" d="M1356.23,1733.3H596.89c-46.74,0-81-41.3-76.69-91.37l67.73-779.26c3.1-35.68,36.84-64.19,75.4-64.19h626.46c38.56,0,72.29,28.51,75.39,64.19l67.73,779.26C1437.27,1692,1403,1733.3,1356.23,1733.3Z"/><rect class="cls-5" x="624.71" y="661.46" width="703.7" height="131.48" rx="34.98"/><rect class="cls-5" x="329.08" y="1747.47" width="1294.96" height="119.65" rx="42.43"/><path class="cls-6" d="M852.76,1439.81c-29-26.68-74.24-76.54-91.91-146.49-7.53-29.77-8.1-55.29-8.58-81.45-.79-42.11-1.59-85.19,13.88-89.69,25.2-7.31,61.79,97,105.58,92.18,28.18-3.08,47-50,69.21-105.25,21.67-54,25.8-89.56,36-89.37,8.1.15,13,22.73,22.9,63.45,33.13,135.87,42.83,146.4,51.34,147.46,9.47,1.19,30.28-24.56,71.53-76.11,25.1-31.38,33.44-43.31,43.81-42,19.51,2.47,27.21,49.4,30.55,69.74,3.3,20.13,9.91,63.59-6.68,118.28-6,19.86-18.88,60.49-56.41,100.08-30.76,32.44-65.14,50.5-88.1,60.21"/><path class="cls-7" d="M878.7,1430.25c-10.26-24.82-9.47-43.63-6.88-56.2,3.75-18.19,11.62-24.88,14.36-48.19,2.37-20.21-1.54-33.06,2.42-33.82,8.92-1.71,25.18,50.19,42.75,48.72,14.5-1.21,23.65-38.22,25-43.93,4.31-18.42,2-29.85,6.65-30.7,6.72-1.23,19.23,21.7,24.48,31.33,14.14,25.92,12.85,41,21.89,42.53,6.56,1.07,9.95-6.23,26.85-17.83,16.32-11.21,40.65-23.28,45.85-19.11,3.43,2.76-3.21,11.2-14,30.89a542,542,0,0,0-25.2,55.06,288.78,288.78,0,0,0-15.43,54"/><path class="cls-8" d="M745.59,1716.17c-16.14-25.51-24.31-52.84-24.31-81.35,0-105.49,114.52-191.31,255.28-191.31s255.27,85.82,255.27,191.31c0,28.51-8.17,55.84-24.3,81.35Z"/><path class="cls-2" d="M976.56,1461a309.4,309.4,0,0,1,95.39,14.7c28.69,9.29,54.33,22.5,76.21,39.25,42.67,32.66,66.17,75.23,66.17,119.86,0,22.14-5.63,43.55-16.78,63.85h-442c-11.15-20.3-16.79-41.71-16.79-63.85,0-44.63,23.5-87.2,66.17-119.86,21.88-16.75,47.53-30,76.21-39.25a309.47,309.47,0,0,1,95.4-14.7m0-35c-150.65,0-272.78,93.48-272.78,208.81,0,35.76,11.76,69.42,32.46,98.85h480.64c20.7-29.43,32.45-63.09,32.45-98.85,0-115.33-122.12-208.81-272.77-208.81Z"/><path class="cls-9" d="M732.08,1618.62a824.76,824.76,0,0,1,489-2.63"/></svg>